<?xml version="1.0" encoding="UTF-8"?>
<!DOCTYPE svg PUBLIC "-//W3C//DTD SVG 1.1//EN" "http://www.w3.org/Graphics/SVG/1.1/DTD/svg11.dtd">
<svg xmlns="http://www.w3.org/2000/svg" version="1.1" width="500px" height="500px" style="shape-rendering:geometricPrecision; text-rendering:geometricPrecision; image-rendering:optimizeQuality; fill-rule:evenodd; clip-rule:evenodd" xmlns:xlink="http://www.w3.org/1999/xlink">
<g><path style="opacity:1" fill="#b19f59" d="M 299.5,80.5 C 300.66,82.2027 299.993,82.8693 297.5,82.5C 270.872,75.2241 243.872,73.5574 216.5,77.5C 215.127,77.6567 213.793,77.49 212.5,77C 213.737,76.7679 214.737,76.2679 215.5,75.5C 243.922,70.2982 271.922,71.9649 299.5,80.5 Z"/></g>
<g><path style="opacity:1" fill="#c0ac5b" d="M 263.5,87.5 C 263.918,88.2216 264.584,88.7216 265.5,89C 262.854,89.4974 260.187,89.6641 257.5,89.5C 250.167,89.5 242.833,89.5 235.5,89.5C 231.958,89.8128 228.625,89.4794 225.5,88.5C 238.073,86.3697 250.74,86.0364 263.5,87.5 Z"/></g>
<g><path style="opacity:1" fill="#af9d5a" d="M 215.5,75.5 C 214.737,76.2679 213.737,76.7679 212.5,77C 213.793,77.49 215.127,77.6567 216.5,77.5C 161.725,88.8061 120.559,118.806 93,167.5C 89.4726,174.256 86.6392,181.256 84.5,188.5C 83.1266,188.657 81.7932,188.49 80.5,188C 102.358,134.476 140.692,98.4757 195.5,80C 202.111,78.1801 208.778,76.6801 215.5,75.5 Z"/></g>
<g><path style="opacity:1" fill="#af9e59" d="M 225.5,88.5 C 228.625,89.4794 231.958,89.8128 235.5,89.5C 181.313,95.1703 139.48,120.837 110,166.5C 105.973,173.221 102.473,180.221 99.5,187.5C 98.277,188.614 96.9437,188.781 95.5,188C 120.895,131.462 164.228,98.2953 225.5,88.5 Z"/></g>
<g><path style="opacity:1" fill="#b09f5a" d="M 263.5,87.5 C 318.061,94.1774 359.561,120.844 388,167.5C 391.733,174.295 394.899,181.295 397.5,188.5C 396.325,188.719 395.325,188.386 394.5,187.5C 367.198,129.203 321.532,96.5366 257.5,89.5C 260.187,89.6641 262.854,89.4974 265.5,89C 264.584,88.7216 263.918,88.2216 263.5,87.5 Z"/></g>
<g><path style="opacity:1" fill="#ae9d5a" d="M 299.5,80.5 C 353.849,99.0163 391.849,134.85 413.5,188C 412.207,188.49 410.873,188.657 409.5,188.5C 392.165,143.328 361.499,110.495 317.5,90C 310.685,87.5661 304.018,85.0661 297.5,82.5C 299.993,82.8693 300.66,82.2027 299.5,80.5 Z"/></g>
<g><path style="opacity:1" fill="#ccb459" d="M 214.5,155.5 C 199.532,154.382 184.532,154.215 169.5,155C 176.779,156.247 184.112,156.747 191.5,156.5C 191.5,157.5 191.5,158.5 191.5,159.5C 176.54,158.14 161.54,156.973 146.5,156C 146.833,155.667 147.167,155.333 147.5,155C 167.084,152.297 186.75,151.297 206.5,152C 209.599,152.387 212.266,153.554 214.5,155.5 Z"/></g>
<g><path style="opacity:1" fill="#fddd59" d="M 214.5,155.5 C 216.411,156.075 218.078,157.075 219.5,158.5C 219.848,161.019 221.181,162.853 223.5,164C 238.167,164.667 252.833,164.667 267.5,164C 275.761,163.237 283.761,161.737 291.5,159.5C 296.119,158.686 300.786,158.353 305.5,158.5C 314.173,158.334 322.84,158.5 331.5,159C 336.686,159.511 340.352,162.011 342.5,166.5C 342.378,168.791 341.545,170.791 340,172.5C 339.667,172.167 339.333,171.833 339,171.5C 337.961,172.71 336.794,173.71 335.5,174.5C 327.505,175.166 319.505,175.832 311.5,176.5C 281.332,173.846 251.165,171.513 221,169.5C 218.196,171.399 217.03,174.066 217.5,177.5C 217.167,177.5 216.833,177.5 216.5,177.5C 215.417,177.461 214.417,177.127 213.5,176.5C 212.494,176.938 212.494,177.604 213.5,178.5C 212.271,179.281 210.938,179.781 209.5,180C 193.446,180.938 177.446,180.605 161.5,179C 171.549,178.865 181.549,178.198 191.5,177C 192.637,173.889 193.637,170.722 194.5,167.5C 193.74,165.404 193.74,163.404 194.5,161.5C 193.643,160.575 192.643,159.908 191.5,159.5C 191.5,158.5 191.5,157.5 191.5,156.5C 184.112,156.747 176.779,156.247 169.5,155C 184.532,154.215 199.532,154.382 214.5,155.5 Z"/></g>
<g><path style="opacity:1" fill="#d0bb5f" d="M 305.5,158.5 C 314.991,157.342 324.658,157.175 334.5,158C 343.044,158.96 346.211,163.46 344,171.5C 341.195,174.653 337.695,176.319 333.5,176.5C 334.167,175.833 334.833,175.167 335.5,174.5C 336.794,173.71 337.961,172.71 339,171.5C 339.333,171.833 339.667,172.167 340,172.5C 341.545,170.791 342.378,168.791 342.5,166.5C 340.352,162.011 336.686,159.511 331.5,159C 322.84,158.5 314.173,158.334 305.5,158.5 Z"/></g>
<g><path style="opacity:0.557" fill="#71673e" d="M 148.5,162.5 C 150.833,163.167 153.167,163.833 155.5,164.5C 152.278,164.892 149.278,164.392 146.5,163C 147.094,162.536 147.761,162.369 148.5,162.5 Z"/></g>
<g><path style="opacity:1" fill="#b59f5d" d="M 170.5,161.5 C 169.391,162.29 168.058,162.79 166.5,163C 170.347,163.633 174.014,164.467 177.5,165.5C 170.183,164.882 162.849,164.549 155.5,164.5C 153.167,163.833 150.833,163.167 148.5,162.5C 155.791,161.608 163.124,161.274 170.5,161.5 Z"/></g>
<g><path style="opacity:1" fill="#c8b258" d="M 219.5,158.5 C 221.308,159.907 223.308,161.074 225.5,162C 247.552,162.58 269.552,161.747 291.5,159.5C 283.761,161.737 275.761,163.237 267.5,164C 252.833,164.667 238.167,164.667 223.5,164C 221.181,162.853 219.848,161.019 219.5,158.5 Z"/></g>
<g><path style="opacity:1" fill="#d2ba59" d="M 191.5,159.5 C 192.643,159.908 193.643,160.575 194.5,161.5C 193.74,163.404 193.74,165.404 194.5,167.5C 193.637,170.722 192.637,173.889 191.5,177C 181.549,178.198 171.549,178.865 161.5,179C 177.446,180.605 193.446,180.938 209.5,180C 210.938,179.781 212.271,179.281 213.5,178.5C 212.494,177.604 212.494,176.938 213.5,176.5C 214.417,177.127 215.417,177.461 216.5,177.5C 212.898,181.726 208.232,183.559 202.5,183C 189.439,183.53 176.439,183.03 163.5,181.5C 159.1,179.896 154.434,179.229 149.5,179.5C 148.325,179.719 147.325,179.386 146.5,178.5C 153.668,176.97 160.835,176.637 168,177.5C 175.937,177.195 183.771,176.362 191.5,175C 177.18,173.543 162.846,172.376 148.5,171.5C 152.167,170.833 155.833,170.167 159.5,169.5C 170.247,169.903 180.913,169.236 191.5,167.5C 186.954,166.015 182.287,165.348 177.5,165.5C 174.014,164.467 170.347,163.633 166.5,163C 168.058,162.79 169.391,162.29 170.5,161.5C 177.721,161.65 184.721,160.983 191.5,159.5 Z"/></g>
<g><path style="opacity:0.584" fill="#7e6f28" d="M 159.5,169.5 C 155.833,170.167 152.167,170.833 148.5,171.5C 146.621,171.607 146.288,171.107 147.5,170C 151.486,169.501 155.486,169.334 159.5,169.5 Z"/></g>
<g><path style="opacity:1" fill="#d6be5c" d="M 335.5,174.5 C 334.833,175.167 334.167,175.833 333.5,176.5C 299.211,178.081 265.044,176.415 231,171.5C 225.788,172.025 221.288,174.025 217.5,177.5C 217.03,174.066 218.196,171.399 221,169.5C 251.165,171.513 281.332,173.846 311.5,176.5C 319.505,175.832 327.505,175.166 335.5,174.5 Z"/></g>
<g><path style="opacity:0.953" fill="#ae994a" d="M 149.5,179.5 C 154.434,179.229 159.1,179.896 163.5,181.5C 158.586,181.638 153.919,180.972 149.5,179.5 Z"/></g>
<g><path style="opacity:0.474" fill="#6f6f6f" d="M 337.5,203.5 C 332.706,202.903 328.373,203.57 324.5,205.5C 323.596,204.791 323.263,203.791 323.5,202.5C 328.363,202.181 333.03,202.514 337.5,203.5 Z"/></g>
<g><path style="opacity:0.467" fill="#707070" d="M 420.5,203.5 C 415.706,202.903 411.373,203.57 407.5,205.5C 406.596,204.791 406.263,203.791 406.5,202.5C 411.363,202.181 416.03,202.514 420.5,203.5 Z"/></g>
<g><path style="opacity:1" fill="#eeeeee" d="M 83.5,202.5 C 93.5144,201.28 102.848,203.113 111.5,208C 117.879,214.442 117.879,220.775 111.5,227C 106.714,229.262 102.547,228.428 99,224.5C 97.3486,219.967 96.1819,215.301 95.5,210.5C 92.0626,208.922 88.8959,209.255 86,211.5C 85.3333,227.5 85.3333,243.5 86,259.5C 88.635,262.825 91.8017,263.325 95.5,261C 96.2905,256.867 97.1239,252.7 98,248.5C 104.921,241.433 110.921,242.1 116,250.5C 116.691,258.608 113.191,264.108 105.5,267C 95.0583,270.316 84.725,269.983 74.5,266C 72.04,264.542 69.8734,262.709 68,260.5C 66.3804,244.901 66.047,229.234 67,213.5C 68.1667,211.667 69.3333,209.833 70.5,208C 74.7073,205.66 79.0407,203.826 83.5,202.5 Z"/></g>
<g><path style="opacity:1" fill="#f5f5f5" d="M 141.5,209.5 C 141.334,217.174 141.5,224.841 142,232.5C 142.717,231.956 143.217,231.289 143.5,230.5C 145.975,224.858 149.975,220.692 155.5,218C 162.414,216.049 167.914,217.882 172,223.5C 173.278,236.764 173.945,250.098 174,263.5C 174.273,265.101 174.773,266.601 175.5,268C 170.167,268.667 164.833,268.667 159.5,268C 156.211,266.59 154.544,264.09 154.5,260.5C 155.142,249.779 154.475,239.446 152.5,229.5C 149.229,231.591 146.063,233.924 143,236.5C 142.333,246.5 142.333,256.5 143,266.5C 143.5,267 144,267.5 144.5,268C 137.842,268.5 131.175,268.666 124.5,268.5C 125.155,247.14 124.489,226.14 122.5,205.5C 121.596,204.791 121.263,203.791 121.5,202.5C 126.179,202.334 130.845,202.501 135.5,203C 139.089,203.754 141.089,205.921 141.5,209.5 Z"/></g>
<g><path style="opacity:1" fill="#f6f6f6" d="M 337.5,203.5 C 340.642,203.799 342.809,205.466 344,208.5C 344.333,225.5 344.667,242.5 345,259.5C 345.502,262.513 346.002,265.513 346.5,268.5C 341.156,268.666 335.823,268.499 330.5,268C 328.622,266.457 327.122,264.624 326,262.5C 325.832,243.329 325.332,224.329 324.5,205.5C 328.373,203.57 332.706,202.903 337.5,203.5 Z"/></g>
<g><path style="opacity:1" fill="#f5f5f5" d="M 420.5,203.5 C 423.642,203.799 425.809,205.466 427,208.5C 427.333,225.5 427.667,242.5 428,259.5C 428.502,262.513 429.002,265.513 429.5,268.5C 424.156,268.666 418.823,268.499 413.5,268C 411.622,266.457 410.122,264.624 409,262.5C 408.832,243.329 408.332,224.329 407.5,205.5C 411.373,203.57 415.706,202.903 420.5,203.5 Z"/></g>
<g><path style="opacity:0.838" fill="#d2d2d2" d="M 122.5,205.5 C 124.489,226.14 125.155,247.14 124.5,268.5C 123.823,247.598 123.156,226.598 122.5,205.5 Z"/></g>
<g><path style="opacity:1" fill="#eeeeee" d="M 200.5,213.5 C 209.361,213.073 217.695,214.907 225.5,219C 231.085,224.498 231.752,230.498 227.5,237C 218.462,240.901 209.295,244.401 200,247.5C 199.333,251.5 199.333,255.5 200,259.5C 203.182,263.057 206.682,263.391 210.5,260.5C 211.262,256.889 211.762,253.222 212,249.5C 215.956,243.241 221.122,242.074 227.5,246C 232.228,254.167 230.561,260.834 222.5,266C 186.187,276.024 172.354,262.524 181,225.5C 182.442,221.725 184.942,218.892 188.5,217C 192.543,215.509 196.543,214.342 200.5,213.5 Z M 202.5,220.5 C 208.914,219.748 211.914,222.581 211.5,229C 211.536,231.63 211.036,234.13 210,236.5C 206.918,238.625 203.751,240.625 200.5,242.5C 199.336,236.193 199.169,229.859 200,223.5C 201.045,222.627 201.878,221.627 202.5,220.5 Z"/></g>
<g><path style="opacity:1" fill="#eeeeee" d="M 363.5,240.5 C 355.644,241.25 351.311,237.75 350.5,230C 351.364,222.802 355.364,218.468 362.5,217C 373.399,213.695 384.066,214.362 394.5,219C 396.709,220.873 398.542,223.04 400,225.5C 400.333,236.833 400.667,248.167 401,259.5C 401.27,262.224 401.77,264.891 402.5,267.5C 397.198,268.663 391.864,268.829 386.5,268C 384.308,266.641 382.641,264.808 381.5,262.5C 373.373,270.274 364.373,271.44 354.5,266C 350.567,260.994 349.733,255.494 352,249.5C 355.161,245.491 358.994,242.491 363.5,240.5 Z M 363.5,240.5 C 369.131,236.433 371.631,230.766 371,223.5C 374.663,220.667 377.996,221 381,224.5C 383.406,231.453 381.24,235.953 374.5,238C 370.93,239.31 367.263,240.143 363.5,240.5 Z M 380.5,238.5 C 381.652,243.985 381.818,249.651 381,255.5C 376.534,260.381 372.201,260.381 368,255.5C 367.333,253.167 367.333,250.833 368,248.5C 372.066,244.923 376.232,241.589 380.5,238.5 Z"/></g>
<g><path style="opacity:0.633" fill="#9c9c9c" d="M 141.5,209.5 C 142.167,216.5 142.833,223.5 143.5,230.5C 143.217,231.289 142.717,231.956 142,232.5C 141.5,224.841 141.334,217.174 141.5,209.5 Z"/></g>
<g><path style="opacity:1" fill="#efefef" d="M 256.5,223.5 C 256.336,226.187 256.503,228.854 257,231.5C 257.717,230.956 258.217,230.289 258.5,229.5C 260.953,223.88 264.953,219.713 270.5,217C 280.934,214.952 286.768,219.119 288,229.5C 290,226.833 292,224.167 294,221.5C 299.344,216.346 305.511,215.18 312.5,218C 315.187,219.875 317.021,222.375 318,225.5C 318.237,239.525 318.737,253.525 319.5,267.5C 316.713,268.477 313.713,268.81 310.5,268.5C 305.72,269.359 302.22,267.692 300,263.5C 299.667,252.833 299.333,242.167 299,231.5C 298.632,230.09 297.799,229.09 296.5,228.5C 288.546,233.734 285.546,241.234 287.5,251C 287.667,256.167 287.833,261.333 288,266.5C 288.5,267 289,267.5 289.5,268C 282.508,268.5 275.508,268.666 268.5,268.5C 268.667,255.496 268.5,242.496 268,229.5C 267.586,229.043 267.086,228.709 266.5,228.5C 263.23,230.267 260.397,232.6 258,235.5C 257.18,246.41 257.347,257.243 258.5,268C 251.508,268.5 244.508,268.666 237.5,268.5C 237.667,252.163 237.5,235.83 237,219.5C 236.5,219 236,218.5 235.5,218C 240.319,216.394 245.319,216.061 250.5,217C 254.089,217.754 256.089,219.921 256.5,223.5 Z"/></g>
<g><path style="opacity:0.255" fill="#575757" d="M 256.5,223.5 C 257.167,225.5 257.833,227.5 258.5,229.5C 258.217,230.289 257.717,230.956 257,231.5C 256.503,228.854 256.336,226.187 256.5,223.5 Z"/></g>
<g><path style="opacity:0.05" fill="#1a1a1a" d="M 152.5,229.5 C 154.475,239.446 155.142,249.779 154.5,260.5C 153.811,250.265 153.145,239.932 152.5,229.5 Z"/></g>
<g><path style="opacity:0.1" fill="#1b1b1b" d="M 319.5,267.5 C 320.043,267.56 320.376,267.893 320.5,268.5C 317.02,269.806 313.687,269.806 310.5,268.5C 313.713,268.81 316.713,268.477 319.5,267.5 Z"/></g>
<g><path style="opacity:0.937" fill="#c3ae5f" d="M 232.5,291.5 C 233.822,291.33 234.989,291.663 236,292.5C 237.401,296.871 238.901,301.204 240.5,305.5C 240,305.833 239.5,306.167 239,306.5C 235.969,302.852 232.802,302.686 229.5,306C 228.5,306.667 227.5,306.667 226.5,306C 228.601,301.195 230.601,296.362 232.5,291.5 Z M 233.5,295.5 C 234.738,297.214 235.405,299.214 235.5,301.5C 234.127,301.657 232.793,301.49 231.5,301C 232.464,299.275 233.131,297.441 233.5,295.5 Z"/></g>
<g><path style="opacity:0.522" fill="#7e6d28" d="M 182.5,291.5 C 183.043,291.56 183.376,291.893 183.5,292.5C 181.604,293.466 179.604,293.799 177.5,293.5C 177.5,294.833 177.5,296.167 177.5,297.5C 179.415,297.216 181.081,297.549 182.5,298.5C 180.5,298.5 178.5,298.5 176.5,298.5C 176.5,296.5 176.5,294.5 176.5,292.5C 178.735,292.795 180.735,292.461 182.5,291.5 Z"/></g>
<g><path style="opacity:1" fill="#d6c67b" d="M 338.5,291.5 C 337.432,292.434 336.099,292.768 334.5,292.5C 334.5,297.167 334.5,301.833 334.5,306.5C 332.57,302.627 331.903,298.294 332.5,293.5C 331.022,293.762 329.689,293.429 328.5,292.5C 331.768,291.513 335.102,291.18 338.5,291.5 Z"/></g>
<g><path style="opacity:0.89" fill="#b8a75e" d="M 268.5,291.5 C 271.518,291.335 274.518,291.502 277.5,292C 280.311,295.294 279.978,298.294 276.5,301C 277.376,302.586 278.376,304.086 279.5,305.5C 278.635,306.583 277.635,306.749 276.5,306C 275.36,304.027 274.027,302.193 272.5,300.5C 271.534,302.396 271.201,304.396 271.5,306.5C 270.5,306.5 269.5,306.5 268.5,306.5C 268.5,301.5 268.5,296.5 268.5,291.5 Z M 271.5,293.5 C 275.676,292.831 277.009,294.331 275.5,298C 274.207,298.49 272.873,298.657 271.5,298.5C 271.5,296.833 271.5,295.167 271.5,293.5 Z"/></g>
<g><path style="opacity:1" fill="#b4a55b" d="M 155.5,291.5 C 158.518,291.335 161.518,291.502 164.5,292C 167.311,295.294 166.978,298.294 163.5,301C 164.5,302.667 165.5,304.333 166.5,306C 165.056,306.781 163.723,306.614 162.5,305.5C 159.752,298.68 158.418,299.013 158.5,306.5C 157.5,306.5 156.5,306.5 155.5,306.5C 155.5,301.5 155.5,296.5 155.5,291.5 Z M 158.5,293.5 C 162.676,292.831 164.009,294.331 162.5,298C 161.207,298.49 159.873,298.657 158.5,298.5C 158.5,296.833 158.5,295.167 158.5,293.5 Z"/></g>
<g><path style="opacity:1" fill="#ac9c59" d="M 195.5,290.5 C 198.825,290.494 201.159,291.994 202.5,295C 199.821,294.842 197.154,294.342 194.5,293.5C 194.351,294.552 194.517,295.552 195,296.5C 198.588,297.203 201.088,299.203 202.5,302.5C 200.319,306.949 196.986,308.116 192.5,306C 191.663,304.989 191.33,303.822 191.5,302.5C 193.277,302.786 194.944,303.453 196.5,304.5C 198,304.547 199,303.881 199.5,302.5C 197.318,300.706 194.818,299.373 192,298.5C 190.58,294.439 191.746,291.772 195.5,290.5 Z"/></g>
<g><path style="opacity:1" fill="#b7a75b" d="M 208.5,291.5 C 212.555,291.176 216.555,291.509 220.5,292.5C 218.922,293.298 217.256,293.798 215.5,294C 216.464,298.066 216.797,302.233 216.5,306.5C 215.5,306.5 214.5,306.5 213.5,306.5C 213.5,302.167 213.5,297.833 213.5,293.5C 211.219,293.923 209.552,293.256 208.5,291.5 Z"/></g>
<g><path style="opacity:1" fill="#caba75" d="M 182.5,291.5 C 180.735,292.461 178.735,292.795 176.5,292.5C 176.5,294.5 176.5,296.5 176.5,298.5C 178.5,298.5 180.5,298.5 182.5,298.5C 182.5,298.833 182.5,299.167 182.5,299.5C 180.5,299.5 178.5,299.5 176.5,299.5C 176.5,301.5 176.5,303.5 176.5,305.5C 178.735,305.205 180.735,305.539 182.5,306.5C 179.833,306.5 177.167,306.5 174.5,306.5C 174.5,301.5 174.5,296.5 174.5,291.5C 177.382,291.014 180.048,291.014 182.5,291.5 Z"/></g>
<g><path style="opacity:0.984" fill="#cabc79" d="M 312.5,297.5 C 312.217,296.711 311.717,296.044 311,295.5C 310.501,299.152 310.335,302.818 310.5,306.5C 309.191,304.429 308.525,301.929 308.5,299C 308.382,295.973 308.882,293.139 310,290.5C 312.911,293.99 315.578,297.656 318,301.5C 318.175,297.789 318.675,294.122 319.5,290.5C 320.495,295.792 320.828,301.125 320.5,306.5C 319.178,306.67 318.011,306.337 317,305.5C 315.223,302.941 313.723,300.274 312.5,297.5 Z"/></g>
<g><path style="opacity:0.075" fill="#302500" d="M 312.5,297.5 C 311.833,300.5 311.167,303.5 310.5,306.5C 310.335,302.818 310.501,299.152 311,295.5C 311.717,296.044 312.217,296.711 312.5,297.5 Z"/></g>
<g><path style="opacity:0.347" fill="#665614" d="M 338.5,291.5 C 339.043,291.56 339.376,291.893 339.5,292.5C 338.311,293.429 336.978,293.762 335.5,293.5C 335.818,298.032 335.485,302.366 334.5,306.5C 334.5,301.833 334.5,297.167 334.5,292.5C 336.099,292.768 337.432,292.434 338.5,291.5 Z"/></g>
<g><path style="opacity:1" fill="#ad9c60" d="M 249.5,290.5 C 251.673,291.166 252.007,292.333 250.5,294C 251.204,297.128 251.704,300.294 252,303.5C 253.667,304.833 255.333,304.833 257,303.5C 257.499,299.514 257.666,295.514 257.5,291.5C 258.5,291.5 259.5,291.5 260.5,291.5C 260.666,295.514 260.499,299.514 260,303.5C 256.754,308.133 253.088,308.466 249,304.5C 248.227,299.748 248.393,295.081 249.5,290.5 Z"/></g>
<g><path style="opacity:1" fill="#c2af64" d="M 292.5,291.5 C 293.822,291.33 294.989,291.663 296,292.5C 297.401,296.871 298.901,301.204 300.5,305.5C 300,305.833 299.5,306.167 299,306.5C 295.969,302.852 292.802,302.686 289.5,306C 288.5,306.667 287.5,306.667 286.5,306C 288.601,301.195 290.601,296.362 292.5,291.5 Z M 293.5,295.5 C 294.738,297.214 295.405,299.214 295.5,301.5C 294.127,301.657 292.793,301.49 291.5,301C 292.464,299.275 293.131,297.441 293.5,295.5 Z"/></g>
<g><path style="opacity:0.737" fill="#867743" d="M 182.5,299.5 C 181.081,300.451 179.415,300.784 177.5,300.5C 177.5,301.833 177.5,303.167 177.5,304.5C 179.604,304.201 181.604,304.534 183.5,305.5C 183.376,306.107 183.043,306.44 182.5,306.5C 180.735,305.539 178.735,305.205 176.5,305.5C 176.5,303.5 176.5,301.5 176.5,299.5C 178.5,299.5 180.5,299.5 182.5,299.5 Z"/></g>
<g><path style="opacity:1" fill="#968341" d="M 163.5,329.5 C 170.55,328.247 177.55,328.58 184.5,330.5C 177.51,330.001 170.51,329.668 163.5,329.5 Z"/></g>
<g><path style="opacity:1" fill="#9c8d46" d="M 193.5,331.5 C 198.391,331.532 203.057,332.199 207.5,333.5C 202.547,333.877 197.881,333.211 193.5,331.5 Z"/></g>
<g><path style="opacity:1" fill="#e2c75c" d="M 344.5,336.5 C 344.5,337.167 344.5,337.833 344.5,338.5C 341.414,337.015 338.081,336.015 334.5,335.5C 326.524,334.56 318.524,333.894 310.5,333.5C 295.497,334.793 280.497,334.793 265.5,333.5C 256.026,334.738 246.526,335.738 237,336.5C 232.653,336.499 228.486,336.166 224.5,335.5C 231.022,335.823 237.355,335.49 243.5,334.5C 247.163,333.734 250.829,332.9 254.5,332C 280.854,331.12 307.188,331.453 333.5,333C 337.529,333.416 341.196,334.583 344.5,336.5 Z"/></g>
<g><path style="opacity:1" fill="#fddd5a" d="M 162.5,329.5 C 162.833,329.5 163.167,329.5 163.5,329.5C 170.51,329.668 177.51,330.001 184.5,330.5C 187.57,330.368 190.57,330.701 193.5,331.5C 197.881,333.211 202.547,333.877 207.5,333.5C 208.167,333.5 208.833,333.5 209.5,333.5C 214.217,335.238 219.217,335.904 224.5,335.5C 228.486,336.166 232.653,336.499 237,336.5C 246.526,335.738 256.026,334.738 265.5,333.5C 280.497,334.793 295.497,334.793 310.5,333.5C 318.524,333.894 326.524,334.56 334.5,335.5C 338.081,336.015 341.414,337.015 344.5,338.5C 344.5,339.833 344.5,341.167 344.5,342.5C 340.777,342.534 337.777,343.867 335.5,346.5C 333.473,346.338 331.473,346.505 329.5,347C 328.944,347.383 328.611,347.883 328.5,348.5C 328.167,348.5 327.833,348.5 327.5,348.5C 305.901,350.852 284.234,351.852 262.5,351.5C 255.396,349.115 248.396,346.448 241.5,343.5C 231.158,342.751 220.658,342.085 210,341.5C 203.577,342.177 197.244,343.177 191,344.5C 188.095,344.124 185.262,343.457 182.5,342.5C 178.743,343.052 178.743,344.052 182.5,345.5C 172.824,346.726 163.157,346.726 153.5,345.5C 152.535,342.47 152.535,339.137 153.5,335.5C 156.366,333.238 159.366,331.238 162.5,329.5 Z"/></g>
<g><path style="opacity:1" fill="#c3b158" d="M 162.5,329.5 C 159.366,331.238 156.366,333.238 153.5,335.5C 152.535,339.137 152.535,342.47 153.5,345.5C 149.343,340.224 150.01,335.39 155.5,331C 157.74,330.023 160.073,329.523 162.5,329.5 Z"/></g>
<g><path style="opacity:1" fill="#a69348" d="M 209.5,333.5 C 220.821,334.181 232.154,334.514 243.5,334.5C 237.355,335.49 231.022,335.823 224.5,335.5C 219.217,335.904 214.217,335.238 209.5,333.5 Z"/></g>
<g><path style="opacity:1" fill="#938445" d="M 344.5,336.5 C 347.167,338.5 347.167,340.5 344.5,342.5C 344.5,341.167 344.5,339.833 344.5,338.5C 344.5,337.833 344.5,337.167 344.5,336.5 Z"/></g>
<g><path style="opacity:1" fill="#d6be5b" d="M 241.5,343.5 C 226.485,343.854 211.485,344.521 196.5,345.5C 191.878,345.156 187.545,345.823 183.5,347.5C 174.853,349.499 166.186,349.666 157.5,348C 155.68,347.8 154.347,346.966 153.5,345.5C 163.157,346.726 172.824,346.726 182.5,345.5C 178.743,344.052 178.743,343.052 182.5,342.5C 185.262,343.457 188.095,344.124 191,344.5C 197.244,343.177 203.577,342.177 210,341.5C 220.658,342.085 231.158,342.751 241.5,343.5 Z"/></g>
<g><path style="opacity:1" fill="#b6a256" d="M 344.5,342.5 C 341.912,344.625 338.912,345.958 335.5,346.5C 337.777,343.867 340.777,342.534 344.5,342.5 Z"/></g>
<g><path style="opacity:0.788" fill="#937f3f" d="M 196.5,345.5 C 192.361,346.563 188.028,347.23 183.5,347.5C 187.545,345.823 191.878,345.156 196.5,345.5 Z"/></g>
<g><path style="opacity:1" fill="#ac9650" d="M 335.5,346.5 C 333.401,347.612 331.067,348.279 328.5,348.5C 328.611,347.883 328.944,347.383 329.5,347C 331.473,346.505 333.473,346.338 335.5,346.5 Z"/></g>
<g><path style="opacity:1" fill="#b3a15b" d="M 232.5,409.5 C 230.801,409.34 229.134,409.506 227.5,410C 228.416,410.278 229.082,410.778 229.5,411.5C 174.148,403.935 132.315,376.268 104,328.5C 101.567,322.468 98.7338,316.634 95.5,311C 96.9437,310.219 98.277,310.386 99.5,311.5C 126.031,368.271 170.365,400.938 232.5,409.5 Z"/></g>
<g><path style="opacity:1" fill="#c4ae56" d="M 327.5,348.5 C 307.837,352.564 287.837,354.064 267.5,353C 265.618,352.802 263.952,352.302 262.5,351.5C 284.234,351.852 305.901,350.852 327.5,348.5 Z"/></g>
<g><path style="opacity:1" fill="#b09f59" d="M 263.5,425.5 C 253.5,424.833 243.5,424.167 233.5,423.5C 307.782,425.787 363.616,395.12 401,331.5C 404.518,324.778 407.352,317.778 409.5,310.5C 410.873,310.343 412.207,310.51 413.5,311C 390.567,367.263 349.9,403.93 291.5,421C 282.258,423.106 272.924,424.606 263.5,425.5 Z"/></g>
<g><path style="opacity:1" fill="#b19f5c" d="M 229.5,423.5 C 228.127,423.343 226.793,423.51 225.5,424C 226.737,424.232 227.737,424.732 228.5,425.5C 157.315,415.425 107.982,377.258 80.5,311C 81.7932,310.51 83.1266,310.343 84.5,310.5C 99.1268,349.545 124.46,379.711 160.5,401C 182.215,412.85 205.215,420.35 229.5,423.5 Z"/></g>
<g><path style="opacity:1" fill="#b19f58" d="M 237.5,411.5 C 243.509,411.666 249.509,411.499 255.5,411C 248.987,410.828 242.653,410.328 236.5,409.5C 310.259,410.311 362.926,377.644 394.5,311.5C 395.325,310.614 396.325,310.281 397.5,310.5C 377.383,358.44 342.383,390.273 292.5,406C 274.333,411.241 255.999,413.074 237.5,411.5 Z"/></g>
<g><path style="opacity:1" fill="#f1da85" d="M 232.5,409.5 C 233.833,409.5 235.167,409.5 236.5,409.5C 242.653,410.328 248.987,410.828 255.5,411C 249.509,411.499 243.509,411.666 237.5,411.5C 234.833,411.5 232.167,411.5 229.5,411.5C 229.082,410.778 228.416,410.278 227.5,410C 229.134,409.506 230.801,409.34 232.5,409.5 Z"/></g>
<g><path style="opacity:1" fill="#bfad66" d="M 229.5,423.5 C 230.833,423.5 232.167,423.5 233.5,423.5C 243.5,424.167 253.5,424.833 263.5,425.5C 251.853,426.789 240.186,426.789 228.5,425.5C 227.737,424.732 226.737,424.232 225.5,424C 226.793,423.51 228.127,423.343 229.5,423.5 Z"/></g>
</svg>
